<svg width="43" height="50" viewBox="0 0 43 50" fill="none" xmlns="http://www.w3.org/2000/svg">
<g clip-path="url(#clip0)">
<path d="M37.7232 39.2771L4.35103 34.376C3.38143 34.2336 2.6939 33.1962 2.81528 32.0588L5.17394 9.96192C5.29533 8.82461 6.17976 8.01807 7.14945 8.16045L40.5216 13.0616C41.4912 13.204 42.1787 14.2415 42.0573 15.3788L39.6986 37.4757C39.5772 38.613 38.6928 39.4195 37.7232 39.2771Z" fill="#3F5EAB"/>
<path d="M36.4899 41.8559H2.85726C1.88008 41.8559 1.08789 40.9266 1.08789 39.7805V17.5109C1.08789 16.3648 1.88008 15.4357 2.85726 15.4357H36.4899C37.4671 15.4357 38.2593 16.3649 38.2593 17.5109V39.7805C38.2593 40.9266 37.4671 41.8559 36.4899 41.8559Z" fill="url(#paint0_linear)"/>
<path d="M14.6138 35.2052C15.6852 35.2052 15.687 33.2521 14.6138 33.2521C11.7079 33.2521 5.0565 33.2521 4.63681 33.2521C3.56538 33.2521 3.56363 35.2052 4.63681 35.2052C4.63681 35.2052 14.1941 35.2052 14.6138 35.2052Z" fill="white"/>
<path d="M17.5 35.2052C18.1825 35.2052 18.865 35.2052 19.5475 35.2052C20.6189 35.2052 20.6207 33.2521 19.5475 33.2521C18.865 33.2521 18.1825 33.2521 17.5 33.2521C16.4286 33.2521 16.4269 35.2052 17.5 35.2052Z" fill="white"/>
<path d="M27.3423 38.2236C29.0598 38.2236 30.4522 36.5904 30.4522 34.5758C30.4522 32.5611 29.0598 30.9279 27.3423 30.9279C25.6247 30.9279 24.2323 32.5611 24.2323 34.5758C24.2323 36.5904 25.6247 38.2236 27.3423 38.2236Z" fill="url(#paint1_linear)"/>
<path d="M32.3654 38.2236C34.083 38.2236 35.4754 36.5904 35.4754 34.5758C35.4754 32.5611 34.083 30.9279 32.3654 30.9279C30.6478 30.9279 29.2554 32.5611 29.2554 34.5758C29.2554 36.5904 30.6478 38.2236 32.3654 38.2236Z" fill="#3F5EAB"/>
<path d="M1.08788 24.3368C2.32374 24.3368 38.0775 24.3975 38.1967 24.3368C38.2115 24.3293 38.2422 24.3368 38.2593 24.3368C38.2746 24.3368 38.2751 21.8954 38.2593 21.8954C37.0235 21.8954 1.26971 21.8348 1.15049 21.8954C1.13567 21.9029 1.10495 21.8954 1.08788 21.8954C1.07264 21.8954 1.07206 24.3368 1.08788 24.3368Z" fill="white"/>
</g>
<defs>
<linearGradient id="paint0_linear" x1="5.2679" y1="45.543" x2="38.637" y2="17.0943" gradientUnits="userSpaceOnUse">
<stop stop-color="#00FFFF"/>
<stop offset="1" stop-color="#FF7BAC"/>
</linearGradient>
<linearGradient id="paint1_linear" x1="24.2323" y1="34.5757" x2="30.4522" y2="34.5757" gradientUnits="userSpaceOnUse">
<stop stop-color="#B3B3B3"/>
<stop offset="0.0161" stop-color="#B7B7B7"/>
<stop offset="0.152" stop-color="#D1D1D1"/>
<stop offset="0.3016" stop-color="#E5E5E5"/>
<stop offset="0.4698" stop-color="#F4F4F4"/>
<stop offset="0.6721" stop-color="#FCFCFC"/>
<stop offset="1" stop-color="white"/>
</linearGradient>
<clipPath id="clip0">
<rect width="42.6273" height="50" fill="white" transform="translate(0.260071)"/>
</clipPath>
</defs>
</svg>
