<svg width="44" height="50" viewBox="0 0 44 50" fill="none" xmlns="http://www.w3.org/2000/svg">
<path d="M17.4353 14.3406L17.4398 14.3427C17.5321 13.8812 17.8678 13.5417 18.2879 13.5417H30.2519C30.267 13.5417 30.2821 13.5344 30.2972 13.5354C30.0424 8.55729 26.4821 6.25 23.341 6.25H11.3769C10.956 6.25 10.6203 6.59896 10.5288 7.05937L10.5244 7.05729L5.29451 35.2219L5.30606 35.2229C5.29363 35.2896 5.27142 35.3531 5.27142 35.425C5.27142 36.001 5.66839 36.4573 6.15949 36.4573H13.3271L17.4353 14.3406Z" fill="#1565C0"/>
<path d="M30.2972 13.5354C30.3443 14.4479 30.2928 15.4406 30.0939 16.5375C28.9563 22.7823 24.8436 26.0323 19.7612 26.0323C19.7612 26.0323 16.6796 26.0323 15.9309 26.0323C15.4683 26.0323 15.2498 26.351 15.1494 26.5948L13.6042 34.9792L13.3333 36.4677H13.328L12.2064 42.5052L12.2179 42.5063C12.2055 42.5729 12.1833 42.6365 12.1833 42.7083C12.1833 43.2844 12.5803 43.75 13.0714 43.75H19.5836L19.5951 43.7396C20.0143 43.7323 20.3473 43.3813 20.4343 42.9188L20.4503 42.9031L22.0595 34.1365C22.0595 34.1365 22.1714 33.3 22.9209 33.3C23.6705 33.3 26.6313 33.3 26.6313 33.3C31.7137 33.3 35.8681 30.0646 37.0066 23.8187C38.2872 16.7771 34.0049 13.5615 30.2972 13.5354Z" fill="#039BE5"/>
<path d="M18.2879 13.5417C17.8669 13.5417 17.5313 13.8812 17.4398 14.3427L17.4353 14.3406L15.1486 26.5958C15.2489 26.3521 15.4674 26.0333 15.9301 26.0333C16.6796 26.0333 19.691 26.0333 19.691 26.0333C24.7735 26.0333 28.9554 22.7833 30.093 16.5385C30.2928 15.4417 30.3434 14.449 30.2964 13.5365C30.2822 13.5344 30.2662 13.5417 30.252 13.5417H18.2879Z" fill="#283593"/>
</svg>
