<svg width="39" height="45" viewBox="0 0 39 45" fill="none" xmlns="http://www.w3.org/2000/svg">
<path d="M32.0724 38.4375H6.496C4.73762 38.4375 3.29895 36.75 3.29895 34.6875V15.0938C3.29895 13.875 3.77851 12.75 4.6577 12L19.2842 0L33.9107 12C34.7899 12.6563 35.2695 13.875 35.2695 15.0938V34.6875C35.2695 36.75 33.8308 38.4375 32.0724 38.4375Z" fill="#78909C"/>
<path d="M27.2769 0.9375H11.2916V30H27.2769V0.9375Z" fill="#AED581"/>
<path d="M10.4923 0V30.9375H28.0761V0H10.4923ZM26.4776 29.0625H12.0908V1.875H26.4776V29.0625Z" fill="#558B2F"/>
<path d="M27.2768 2.8125C27.2768 4.40625 27.037 5.625 25.6783 5.625C24.3196 5.625 23.2805 4.40625 23.2805 2.8125C23.2805 1.21875 24.3196 0.9375 25.6783 0.9375C27.037 0.9375 27.2768 1.21875 27.2768 2.8125Z" fill="#558B2F"/>
<path d="M12.8902 0.9375C14.2489 0.9375 15.2879 1.21875 15.2879 2.8125C15.2879 4.40625 14.2489 5.625 12.8902 5.625C11.5314 5.625 11.2916 4.40625 11.2916 2.8125C11.2916 1.21875 11.5314 0.9375 12.8902 0.9375Z" fill="#558B2F"/>
<path d="M19.2842 9.375C20.167 9.375 20.8827 8.53553 20.8827 7.5C20.8827 6.46447 20.167 5.625 19.2842 5.625C18.4014 5.625 17.6857 6.46447 17.6857 7.5C17.6857 8.53553 18.4014 9.375 19.2842 9.375Z" fill="#558B2F"/>
<path d="M19.2842 24.375C21.9327 24.375 24.0798 21.8566 24.0798 18.75C24.0798 15.6434 21.9327 13.125 19.2842 13.125C16.6357 13.125 14.4886 15.6434 14.4886 18.75C14.4886 21.8566 16.6357 24.375 19.2842 24.375Z" fill="#558B2F"/>
<path d="M32.0724 38.4375H6.496C4.73762 38.4375 3.29895 36.75 3.29895 34.6875V15.9375L19.2842 28.125L35.2695 15.9375V34.6875C35.2695 36.75 33.8308 38.4375 32.0724 38.4375Z" fill="#CFD8DC"/>
</svg>
